<svg width="337" height="313" viewBox="0 0 337 313" fill="none" xmlns="http://www.w3.org/2000/svg">
<path d="M329.151 281.178C329.151 294.411 320.207 305.117 309.168 305.117H27.9825C16.9439 305.117 8.0332 294.411 8.0332 281.178V31.9396C8.0332 18.7063 16.9771 8 27.9825 8H309.168C320.207 8 329.151 18.7063 329.151 31.9396V281.178Z" fill="#161340" stroke="#F7931D" stroke-width="15"/>
<path d="M329.117 118.953C299.592 101.165 289.651 88.4967 241.473 73.9999C231.565 71.0407 217.9 66.9843 198.316 71.0075C190.27 72.6367 171.152 69.7772 167.395 61.5314C163.505 53.0527 178.168 46.0039 178.533 37.7247C179.065 26.2869 165.666 22.0975 157.287 19.6703C149.141 17.3096 142.259 18.3735 138.867 19.3045C133.647 20.7343 128.328 24.5247 124.105 26.4864C77.3904 25.6552 91.6541 32.6043 104.322 37.3258C111.969 40.152 120.049 35.5968 118.951 39.088C117.854 42.5459 115.261 41.9474 113.898 45.0064C113.366 46.1701 117.123 47.0013 116.026 52.7535C115.327 56.3444 110.506 58.8714 116.391 63.1606C122.276 67.483 130.19 67.084 126.698 72.138C122.276 78.6216 115.56 77.3914 112.002 77.5909C101.629 78.1894 92.3191 77.9234 81.9455 77.3581C76.7586 77.0589 71.6051 76.3939 66.4515 75.6292C57.1751 74.2659 23.5605 64.5903 14.0513 61.2986C13.3863 61.0659 11.1254 59.7359 8 57.8739V80.5168C14.3838 83.742 23.4607 85.6705 36.195 89.9929C56.9756 97.0751 75.4952 99.9345 97.0404 109.743C102.726 112.337 111.47 116.227 114.164 118.654C125.269 128.662 132.284 143.491 139.333 156.492C153.198 182.127 156.855 213.182 161.975 241.478C165.699 261.859 164.07 282.607 165.068 303.355C172.549 303.355 191.101 303.355 198.582 303.355C196.155 259.798 183.521 187.946 243.269 202.143C249.653 203.673 256.036 208.029 262.32 211.154C285.362 223.39 305.91 236.091 329.117 246.099V217.372C312.26 205.202 293.475 193.066 275.554 181.994C270.267 178.802 264.98 175.61 259.827 172.319C249.486 165.768 239.445 158.919 230.169 151.371C221.491 142.693 215.872 126.966 216.238 114.997C217.302 81.1153 278.446 110.707 295.536 121.148C311.462 130.89 311.462 130.89 329.117 138.969" fill="#F7931D"/>
</svg>
